P2
64 26
255
255 255 254 255 226 19 0 0 137 255 100 0 5 1 0 141 255 252 254 255 255 255 255 255 255 255 255 255 255 255 255 255 255 255 255 255 255 255 255 255 255 255 255 255 255 255 253 255 240 73 0 6 0 7 173 255 53 0 0 89 255 254 254 255 
255 255 254 255 226 19 0 0 135 255 252 102 0 4 3 0 142 255 253 254 255 255 255 255 255 255 255 255 255 255 255 255 255 255 255 255 255 255 255 255 255 255 255 255 255 253 255 241 71 0 6 0 10 171 255 246 54 0 0 89 255 254 254 255 
255 255 254 255 226 19 0 0 136 255 252 253 102 0 6 1 0 141 255 251 255 255 255 255 255 255 255 255 255 255 255 255 255 255 255 255 255 255 255 255 255 255 255 255 253 255 242 73 0 5 0 6 173 255 253 250 55 0 0 89 255 254 254 255 
255 255 254 255 226 19 0 0 136 255 251 254 253 102 0 4 3 0 142 255 253 254 255 255 255 255 255 255 255 255 255 255 255 255 255 255 255 255 255 255 255 255 255 253 255 240 73 0 6 0 11 172 255 250 255 250 54 0 0 89 255 254 254 255 
255 255 254 255 226 19 0 0 136 255 253 254 254 254 102 0 5 2 0 142 255 251 254 255 255 255 255 255 255 255 255 255 255 255 255 255 255 255 255 255 255 255 253 255 243 72 0 5 1 7 173 255 252 254 255 250 54 0 0 89 255 254 254 255 
255 255 254 255 226 19 0 0 136 255 252 255 253 255 252 103 0 5 2 0 142 255 253 254 255 255 255 255 255 255 255 255 255 255 255 255 255 255 255 255 255 253 255 240 74 0 6 0 10 172 255 252 255 254 255 250 54 0 0 89 255 254 254 255 
255 255 254 255 226 19 0 0 136 255 252 255 255 254 253 255 102 0 4 3 0 142 255 252 254 255 255 255 255 255 255 255 255 255 255 255 255 255 255 255 253 255 242 71 0 6 0 8 173 255 251 255 255 254 255 250 54 0 0 89 255 254 254 255 
255 255 254 255 226 19 0 0 136 255 252 255 255 255 253 255 252 103 0 5 1 0 141 255 252 254 255 255 255 255 255 255 255 255 255 255 255 255 255 253 255 240 74 0 6 0 9 172 255 252 255 255 255 254 255 250 54 0 0 89 255 254 254 255 
255 255 254 255 226 19 0 0 136 255 252 255 255 255 255 254 253 255 102 0 4 3 0 142 255 252 254 255 255 255 255 255 255 255 255 255 255 255 253 255 241 71 0 6 0 9 173 255 251 255 255 255 255 254 255 250 54 0 0 89 255 254 254 255 
255 255 254 255 226 19 0 0 136 255 252 255 255 255 255 255 253 255 252 102 0 6 1 0 141 255 252 254 255 255 255 255 255 255 255 255 255 253 255 241 73 0 6 0 7 173 255 252 255 255 255 255 255 254 255 250 54 0 0 89 255 254 254 255 
255 255 254 255 226 19 0 0 136 255 252 255 255 255 255 255 255 253 254 254 102 0 4 3 0 142 255 253 254 255 255 255 255 255 255 255 253 255 240 72 0 6 0 10 172 255 251 255 255 255 255 255 255 254 255 250 54 0 0 89 255 254 254 255 
255 255 254 255 226 19 0 0 136 255 252 255 255 255 255 255 255 255 254 254 253 102 0 5 2 0 142 255 251 255 255 255 255 255 255 253 255 244 72 0 5 0 6 173 255 252 255 255 255 255 255 255 255 254 255 250 54 0 0 89 255 254 254 255 
255 255 254 255 226 19 0 0 136 255 252 255 255 255 255 255 255 255 255 253 255 252 103 0 4 2 0 142 255 253 254 255 255 255 253 255 240 73 0 6 0 11 171 255 251 255 255 255 255 255 255 255 255 254 255 250 54 0 0 89 255 254 254 255 
255 255 254 255 226 19 0 0 136 255 252 255 255 255 255 255 255 255 255 255 254 253 254 102 0 5 3 0 142 255 252 254 255 253 255 243 72 0 5 1 8 173 255 251 255 255 255 255 255 255 255 255 255 254 255 250 54 0 0 89 255 254 254 255 
255 255 254 255 226 19 0 0 136 255 252 255 255 255 255 255 255 255 255 255 255 253 255 251 103 0 5 2 0 142 255 253 252 255 240 74 0 6 0 10 172 255 252 255 255 255 255 255 255 255 255 255 255 254 255 250 54 0 0 89 255 254 254 255 
255 255 254 255 226 19 0 0 136 255 252 255 255 255 255 255 255 255 255 255 255 255 254 253 255 102 0 4 3 0 142 255 255 242 71 0 6 0 9 173 255 251 255 255 255 255 255 255 255 255 255 255 255 254 255 250 54 0 0 89 255 254 254 255 
255 255 254 255 226 19 0 0 134 255 248 250 250 250 250 250 250 250 250 250 250 250 251 249 251 250 99 0 3 1 0 144 246 72 0 5 0 7 168 255 247 250 251 250 250 250 250 250 250 250 250 250 250 249 251 246 53 0 0 89 255 254 254 255 
255 255 254 255 226 19 0 0 145 255 252 255 255 255 255 255 255 255 255 255 255 255 255 255 255 255 255 123 0 1 0 12 63 0 5 0 22 190 255 253 255 255 255 255 255 255 255 255 255 255 255 255 255 254 255 255 60 0 0 89 255 254 254 255 
255 255 254 255 226 19 0 0 42 83 79 79 79 79 79 79 79 79 79 79 79 79 79 79 80 77 83 76 6 0 1 1 0 2 1 0 28 88 77 79 80 79 79 79 79 79 79 79 79 79 79 79 79 79 80 78 17 0 0 89 255 254 254 255 
255 255 254 255 223 21 0 5 1 0 0 0 0 0 0 0 0 0 0 0 0 0 0 0 0 0 0 0 3 4 4 3 3 3 4 4 2 0 0 0 0 0 0 0 0 0 0 0 0 0 0 0 0 0 0 0 3 8 0 91 255 254 254 255 
255 255 255 255 253 30 0 2 0 0 0 0 0 0 0 0 0 0 0 0 0 0 0 0 0 0 0 0 0 0 0 0 1 0 0 0 0 0 0 0 0 0 0 0 0 0 0 0 0 0 0 0 0 0 0 0 0 4 0 87 255 254 254 255 
255 255 255 255 254 109 84 90 89 89 89 89 89 89 89 89 89 89 89 89 89 89 89 89 89 89 89 89 89 88 94 55 11 81 91 88 89 89 89 89 89 89 89 89 89 89 89 89 89 89 89 89 89 89 89 89 89 91 79 145 255 254 255 255 
255 255 255 255 252 254 255 255 255 255 255 255 255 255 255 255 255 255 255 255 255 255 255 255 255 255 255 255 255 255 255 237 193 255 255 255 255 255 255 255 255 255 255 255 255 255 255 255 255 255 255 255 255 255 255 255 255 255 255 255 255 255 255 255 
255 255 255 255 255 254 254 254 254 254 254 254 254 254 254 254 254 254 254 254 254 254 254 254 254 254 254 254 254 254 254 255 255 254 254 254 254 254 254 254 254 254 254 254 254 254 254 254 254 254 254 254 254 254 254 254 254 254 254 254 255 255 255 255 
255 255 255 255 255 254 254 254 254 254 254 254 254 254 254 254 254 254 254 254 254 254 254 254 254 254 254 254 254 254 255 254 253 254 254 254 254 254 254 254 254 254 254 254 254 254 254 254 254 254 254 254 254 254 254 254 254 254 254 255 255 255 255 255 
255 255 255 255 255 255 255 255 255 255 255 255 255 255 255 255 255 255 255 255 255 255 255 255 255 255 255 255 255 255 255 255 255 255 255 255 255 255 255 255 255 255 255 255 255 255 255 255 255 255 255 255 255 255 255 255 255 255 255 255 255 255 255 255 
